<svg width="18" height="24" viewBox="0 0 18 24" fill="none" xmlns="http://www.w3.org/2000/svg">
<path d="M0.596576 11.1209C0.151811 10.9986 -0.00385704 10.7095 0.00726209 10.2536C0.0295004 9.51974 0.00726107 8.78587 0.0183802 8.05201C0.0183802 6.35078 1.3638 5.33894 2.98719 5.81707C3.04279 5.82818 3.08726 5.83931 3.17621 5.86154C3.17621 5.49461 3.17621 5.14992 3.17621 4.80523C3.18733 3.15959 4.53275 2.14775 6.10055 2.59252C6.16726 2.61475 6.23397 2.62588 6.30069 2.637C6.54531 0.846815 7.20134 0.0573552 8.49116 0.00175952C9.64755 -0.042717 10.4926 0.757862 10.7928 2.19223C11.3154 1.99209 11.838 1.92537 12.3829 2.10328C13.3057 2.40349 13.9062 3.21519 13.9173 4.20479C13.9284 6.01721 13.9173 7.84075 13.9173 9.65317C13.9173 9.7866 13.9173 9.92003 13.9173 10.1202C14.451 9.731 14.9736 9.51974 15.574 9.51974C17.2864 9.53086 18.4761 11.2877 17.7868 12.8555C17.4532 13.6116 17.3309 14.3899 17.3086 15.2016C17.253 16.9362 16.9862 18.6263 16.2301 20.1941C15.4517 21.8175 14.2731 22.9628 12.4385 23.3075C12.1827 23.3519 11.9159 23.3964 11.6601 23.3964C9.7365 23.3964 7.80177 23.5298 5.87816 23.3297C4.0991 23.1407 2.74257 22.1511 1.69737 20.7278C0.618814 19.2379 0.085095 17.5478 0.0183802 15.7242C-0.0149772 14.8569 0.00726209 13.9785 0.00726209 13.1001C0.00726209 12.5775 0.196287 12.3885 0.730006 12.344C1.13029 12.3551 1.34156 12.5664 1.3638 13.0223C1.38603 13.7672 1.37492 14.5122 1.37492 15.2683C1.37492 16.6693 1.68625 17.9814 2.36452 19.2156C2.876 20.1385 3.52091 20.9391 4.46603 21.4506C5.22213 21.8842 6.04495 22.0621 6.90112 22.0732C8.32437 22.0844 9.75874 22.0844 11.182 22.0732C12.8943 22.0621 14.1397 21.306 14.918 19.7605C15.4962 18.6152 15.752 17.3921 15.8854 16.1245C15.9632 15.4462 15.9076 14.768 16.0188 14.0897C16.1189 13.5115 16.2523 12.9556 16.4747 12.4107C16.8083 11.6213 16.3857 10.9652 15.5184 10.8985C15.0626 10.8874 14.7623 11.1209 14.5733 11.5101C14.0507 12.5441 13.6838 13.6227 13.6727 14.8013C13.6616 15.3795 13.4725 15.5797 12.9166 15.6353C11.0819 15.8243 10.0478 16.7138 9.60307 18.4929C9.52524 18.782 9.41405 19.0377 9.12495 19.1823C8.37997 19.2823 8.02416 18.9488 8.16871 18.2149C8.52452 16.358 9.62531 15.0904 11.3933 14.4789C11.9826 14.2676 12.2939 14.0341 12.3717 13.367C12.4496 12.6887 12.5385 12.0327 12.5385 11.3433C12.5274 9.04162 12.5274 6.73995 12.5385 4.44941C12.5385 3.93793 12.394 3.54876 11.8603 3.3931C11.3933 3.34862 11.0041 3.63772 10.904 4.10472C10.8595 4.29374 10.8707 4.49389 10.8707 4.68292C10.8707 6.91786 10.8707 9.16393 10.8707 11.3989C10.8707 11.6657 10.8929 11.9215 10.7595 12.1661C10.5593 12.4774 10.2702 12.622 9.90329 12.4997C9.54747 12.3774 9.40293 12.0883 9.38069 11.7324C9.36957 11.5545 9.36957 11.3766 9.36957 11.1876C9.36957 8.37447 9.36957 5.56133 9.36957 2.7593C9.36957 2.60364 9.36957 2.45909 9.36957 2.30342C9.33621 1.70299 9.01376 1.40277 8.41332 1.41389C8.00192 1.51396 7.79065 1.80306 7.73506 2.21447C7.71282 2.40349 7.71282 2.60364 7.71282 2.79266C7.71282 5.81707 7.71282 8.83035 7.71282 11.8548C7.71282 12.255 7.69058 12.6442 7.26806 12.8555C6.57867 12.9778 6.22286 12.6998 6.21174 11.9659C6.1895 10.4871 6.21174 9.00826 6.20062 7.52941C6.20062 6.62876 6.21174 5.72811 6.1895 4.82746C6.17838 4.21591 5.94488 3.96017 5.33333 3.8601C4.89968 3.93793 4.66618 4.16032 4.57722 4.57172C4.53275 4.79411 4.54387 5.01649 4.54387 5.23887C4.54387 7.48494 4.54387 9.731 4.54387 11.9771C4.54387 12.3329 4.54387 12.6776 4.22141 12.9222C3.53203 13.2002 3.06502 12.9111 3.0539 12.1661C3.03167 10.9319 3.0539 9.69765 3.04279 8.47454C3.04279 8.30775 3.04278 8.14097 3.03167 7.97418C2.98719 7.39599 2.69809 7.118 2.09766 7.09577C1.58618 7.24031 1.38603 7.49606 1.37492 8.06313C1.35268 8.84147 1.38603 9.60869 1.3638 10.387C1.35268 10.8318 1.16365 11.0764 0.818959 11.1765C0.741125 11.1765 0.663291 11.1876 0.596576 11.1209Z" fill="#333333"/>
<path d="M0.59662 11.1209C1.1637 10.9541 1.25265 10.8318 1.26377 10.2425C1.26377 9.46415 1.25265 8.69693 1.26377 7.91859C1.27489 7.37375 1.56398 7.05129 2.08658 6.96234C1.8086 9.83108 1.97539 12.7109 1.97539 15.5797C1.97539 17.6701 2.64254 19.5492 4.15474 21.0614C4.28817 21.1948 4.4772 21.306 4.41048 21.5395C3.3764 20.9947 2.68702 20.1274 2.16442 19.1156C1.56398 17.9592 1.26377 16.7138 1.25265 15.4018C1.24153 14.6234 1.24153 13.8562 1.25265 13.0779C1.25265 12.6998 1.1081 12.4441 0.730049 12.344C0.485428 12.1327 0.618858 11.8548 0.59662 11.6101C0.585501 11.4545 0.59662 11.2877 0.59662 11.1209Z" fill="#F0B885"/>
<path d="M4.41043 21.5396C4.12133 21.0948 3.67657 20.7946 3.37635 20.3609C2.57578 19.2379 2.08653 17.9814 1.93087 16.6249C1.7196 14.8458 1.87527 13.0557 1.84191 11.2766C1.81967 10.1981 1.85303 9.1195 1.83079 8.04094C1.83079 7.65177 1.89751 7.29596 2.08653 6.97351C2.75368 6.91791 3.16509 7.28484 3.16509 7.96311C3.17621 9.34188 3.16509 10.7318 3.16509 12.1105C3.16509 12.7999 3.47642 13.0446 4.13245 12.8666C4.81072 12.6665 4.86632 12.5887 4.86632 11.877C4.86632 9.5865 4.86632 7.28484 4.86632 4.9943C4.86632 4.74968 4.8552 4.49394 4.93303 4.24932C4.99975 4.02694 5.0887 3.83791 5.3222 3.74896C5.97823 3.7712 6.32292 4.12701 6.32292 4.79416C6.32292 7.19589 6.32292 9.59762 6.32292 11.9994C6.32292 12.6554 6.55643 12.8555 7.22357 12.7888C7.9352 12.5553 8.02415 12.4441 8.02415 11.688C8.02415 8.58578 8.02415 5.48354 8.02415 2.39242C8.02415 1.99213 8.01303 1.58073 8.4022 1.30275C9.03599 1.22492 9.48076 1.59185 9.49188 2.23676C9.503 2.9039 9.49188 3.57105 9.49188 4.22708C9.49188 6.70665 9.49188 9.18621 9.49188 11.6658C9.49188 12.0327 9.59195 12.3329 9.97 12.433C10.2813 12.5219 10.5037 12.3663 10.6816 12.1217C11.1041 11.8103 11.2042 11.3878 11.1931 10.8874C11.1709 8.74145 11.182 6.59545 11.182 4.43834C11.182 4.17148 11.182 3.90462 11.2709 3.66C11.3821 3.37091 11.56 3.18188 11.9047 3.29307C12.4384 3.43762 12.6497 3.72672 12.6497 4.32715C12.6497 6.57322 12.6164 8.80816 12.6719 11.0542C12.6942 12.0994 12.4718 13.1113 12.3606 14.1342C12.3384 14.3455 12.2161 14.3455 12.0604 14.39C10.0256 14.8792 8.74689 16.1357 8.27989 18.1816C8.1131 18.9043 8.41332 19.2045 9.13606 19.1045C9.58083 19.0044 9.80321 18.7042 9.99224 18.3039C10.7706 16.6916 12.0715 15.8355 13.8728 15.7687C14.2175 15.7576 14.262 15.6131 14.2064 15.324C13.9729 13.8896 14.3621 12.5887 15.0403 11.3433C15.1515 11.1321 15.2849 10.943 15.474 10.7985C16.2968 10.7651 16.9751 11.5101 16.6526 12.2217C16.0633 13.5449 16.0855 14.9459 15.9632 16.3247C15.852 17.6034 15.5518 18.8376 14.9291 19.9718C14.1286 21.4395 12.9054 22.2067 11.2153 22.1734C9.48076 22.1511 7.75729 22.2512 6.02271 22.1066C5.45563 22.0622 4.89967 21.8731 4.41043 21.5396Z" fill="#F0CFA4"/>
<path d="M15.4851 10.7874C15.2182 11.3322 14.8736 11.8326 14.6734 12.3996C14.3287 13.4115 14.1174 14.4456 14.3621 15.513C14.4399 15.8355 14.3065 15.8688 14.0507 15.8577C12.772 15.8466 11.6824 16.2802 10.8039 17.2365C10.4593 17.6145 10.1813 18.0482 10.0034 18.5263C9.8477 18.9488 9.60308 19.1712 9.13608 19.0934C9.34734 18.9155 9.44742 18.7042 9.50301 18.4262C9.80323 16.8139 11.1486 15.6353 12.8054 15.5352C13.4392 15.4908 13.606 15.3351 13.5837 14.6902C13.5504 13.4671 14.0063 12.3885 14.5289 11.3322C14.7179 10.9764 15.0515 10.7651 15.4851 10.7874Z" fill="#F0B885"/>
<path d="M8.40215 1.29163C8.21313 1.65856 8.14641 2.03661 8.14641 2.44802C8.15753 5.58361 8.14641 8.71921 8.14641 11.8659C8.14641 12.6109 7.95739 12.7999 7.22353 12.7777C7.5015 12.5887 7.57934 12.3218 7.57934 11.9882C7.56822 8.78592 7.56822 5.58361 7.57934 2.3813C7.57934 1.72527 7.83508 1.3917 8.40215 1.29163Z" fill="#EFB885"/>
<path d="M5.33321 3.73773C5.08859 4.03795 4.99964 4.38264 4.99964 4.77181C5.01076 7.22914 4.99964 9.69758 4.99964 12.1549C4.99964 12.7553 4.69942 12.9888 4.14346 12.8554C4.36585 12.6553 4.43256 12.4107 4.43256 12.1104C4.42144 9.68647 4.42144 7.2625 4.43256 4.83853C4.42144 4.16026 4.69942 3.82668 5.33321 3.73773Z" fill="#F0B885"/>
<path d="M11.9158 3.29293C11.5044 3.33741 11.3376 3.53755 11.3265 4.07127C11.3154 4.74954 11.3265 5.4278 11.3265 6.10607C11.3265 7.8073 11.3265 9.50852 11.3265 11.2209C11.3265 11.8324 11.2709 11.8991 10.6927 12.1326C10.7705 11.9436 10.7483 11.7546 10.7483 11.5544C10.7483 9.15271 10.7483 6.75098 10.7483 4.33813C10.7483 3.57091 11.2487 3.13726 11.9158 3.29293Z" fill="#EFB885"/>
</svg>
